<svg fill="none" height="43" viewBox="0 0 134 43" width="134" xmlns="http://www.w3.org/2000/svg"><g fill="#e54e1b"><path d="m51.2988 33.4492c-.9765 0-1.8652-.2344-2.666-.7031-.7812-.4688-1.4551-1.1133-2.0215-1.9336-.5468-.8203-.9668-1.7773-1.2597-2.8711-.2735-1.1133-.3907-2.2949-.3516-3.5449.0391-1.1719.1855-2.4414.4395-3.8086.2734-1.3672.6543-2.7344 1.1425-4.1016.4883-1.3867 1.0742-2.7148 1.7578-3.9843.7032-1.2891 1.504-2.4219 2.4024-3.39848.8984-.97657 1.8945-1.75782 2.9883-2.34375 1.0937-.60547 2.2949-.90821 3.6035-.90821.8008 0 1.4746.16602 2.0215.49805.5664.3125 1.0156.73242 1.3476 1.25977.3516.52734.5957 1.12304.7324 1.7871.1368.66402.1954 1.33792.1758 2.02152-.039.6445-.1367 1.2695-.2929 1.875-.1368.6054-.3418 1.1523-.6153 1.6406-.2539.4687-.5761.8496-.9668 1.1426-.3711.2734-.8008.4101-1.289.4101-.2344-.0195-.459-.0976-.6739-.2343-.1953-.1172-.4004-.293-.6152-.5274-.1953-.2344-.3809-.5762-.5566-1.0254.5273-.2148.9375-.5859 1.2304-1.1133.3125-.5468.5469-1.1132.7032-1.6992.1757-.664.2929-1.4062.3515-2.22654.0391-.80079-.1269-1.38672-.498-1.75782-.3711-.37109-.791-.55664-1.2598-.55664-.918 0-1.8848.47852-2.9004 1.43555s-1.9629 2.25585-2.8418 3.89645c-.8594 1.6211-1.5918 3.5157-2.1972 5.6836-.586 2.168-.9278 4.4629-1.0254 6.8848-.0391 1.0937.0293 2.0215.205 2.7832.1954.7617.459 1.3867.7911 1.875.3515.4883.7421.8398 1.1718 1.0547.4297.2148.8594.3222 1.2891.3222.6836 0 1.3281-.1464 1.9336-.4394s1.1523-.6543 1.6406-1.084c.5078-.4297.9375-.8789 1.2891-1.3476.3711-.4493.6543-.8497.8496-1.2012.1367-.2539.2832-.4102.4394-.4688.1563-.0586.293-.039.4102.0586.1172.0782.1953.2149.2344.4102.039.1758 0 .3906-.1172.6445-.332.6641-.7422 1.3281-1.2305 1.9922-.4687.6641-1.0058 1.2598-1.6113 1.7871-.586.5469-1.2305.9863-1.9336 1.3184-.7031.332-1.4453.498-2.2266.498zm25.1953-11.2793c-.2734.3906-.625.8789-1.0546 1.4649-.4297.5664-.879 1.1425-1.3477 1.7285-.4492.5664-.8984 1.0937-1.3477 1.582-.4296.4688-.791.8008-1.0839.9961-.1954.1172-.42.2148-.6739.293-.2539.0781-.5175.1269-.791.1465-.2539.0195-.498 0-.7324-.0586-.2344-.0391-.4395-.1172-.6152-.2344-.1758-.1367-.3223-.332-.4395-.5859-.0977-.2149-.1953-.4981-.293-.8497-.0781-.3515-.1074-.791-.0879-1.3183-.4687.7812-.9863 1.3867-1.5527 1.8164-.5664.4101-1.1035.7129-1.6113.9082-.586.2148-1.1719.3418-1.7578.3809-.2735 0-.5664-.0977-.8789-.293-.3125-.1758-.5762-.459-.7911-.8496-.2148-.4102-.3515-.9278-.4101-1.5528-.0586-.6445.0195-1.4062.2344-2.2851.2734-1.1914.7031-2.2754 1.289-3.252.6055-.9765 1.2598-1.8066 1.9629-2.4902.7031-.7031 1.3965-1.2305 2.0801-1.582.6836-.3516 1.25-.5078 1.6992-.4688.5274.0977.957.2539 1.2891.4688.2734.1953.4492.4882.5273.8789.0977.3711-.0586.8691-.4687 1.4941.2734-.0586.498-.0976.6738-.1172.1953-.0195.3418-.0293.4395-.0293.1171 0 .1953.0098.2343.0293.0196.0391.0293.127.0293.2637 0 .1172-.0293.3418-.0879.6738-.0586.3321-.1465.7813-.2636 1.3477-.1172.5664-.2735 1.2988-.4688 2.1972-.0391.1758-.0781.3418-.1172.4981-.0195.1367-.0488.2832-.0879.4394-.0195.1368-.0488.3028-.0879.4981-.039.1953-.0878.4394-.1464.7324-.0196.1758-.0293.3711-.0293.586.0195.1953.0586.3808.1172.5566.0585.1758.1464.3223.2636.4394.1367.0977.3223.1465.5567.1465.1953 0 .4492-.1172.7617-.3515.3125-.2539.6445-.5664.9961-.9375.3515-.3907.7129-.8106 1.084-1.2598.3906-.4687.7519-.918 1.0839-1.3477.3321-.4296.625-.8105.879-1.1425.2734-.3321.4687-.5762.5859-.7325.1562-.1757.3125-.2734.4687-.2929.1563-.0391.2735 0 .3516.1172s.0879.2929.0293.5273c-.0391.2344-.1758.5078-.4102.8203zm-8.5839 1.2891c.0976-.3906.2148-.8496.3515-1.377.1367-.5273.2539-1.0351.3516-1.5234.0976-.4883.166-.8887.2051-1.2012.0586-.332.0488-.4883-.0293-.4687-.0977.0195-.2051.0488-.3223.0879-.0977.039-.2246.0683-.3809.0879-.1562.0195-.3125.0488-.4687.0878.1562-.3125.2441-.5664.2637-.7617.039-.2148.0488-.3808.0293-.498-.0196-.1367-.0586-.2442-.1172-.3223-.2149-.1758-.5957-.0293-1.1426.4395-.5274.4492-1.1426 1.289-1.8457 2.5195-.293.5078-.5274 1.0547-.7031 1.6406-.1758.5664-.3028 1.1035-.3809 1.6113-.0586.5079-.0684.9571-.0293 1.3477.0391.3711.1172.6152.2344.7324.2148.2149.459.3223.7324.3223.2734-.0195.5469-.0977.8203-.2344.293-.1562.5762-.3515.8496-.5859.293-.2344.5469-.4785.7617-.7324.2344-.2539.42-.4883.5567-.7032.1562-.2148.2441-.3711.2637-.4687zm7.207 1.4941c-.2149-.2148-.3711-.4199-.4688-.6152-.0781-.2149-.1367-.4199-.1757-.6152-.0391-.2149-.0391-.4297 0-.6446.0781-.2734.1953-.5273.3515-.7617.1367-.2148.3223-.4297.5567-.6445.2343-.2344.5468-.4492.9375-.6446.2539-.625.4785-1.2793.6738-1.9628.2148-.7032.4004-1.3379.5566-1.9043.1758-.6641.3321-1.3282.4688-1.9922.4883-1.6602.7422-3.0078.7617-4.043.0195-1.0547 0-1.74805-.0586-2.08008-.0195-.13672-.0391-.27344-.0586-.41015-.0391-.11719-.0781-.24415-.1172-.38086-.0195-.15625-.0488-.30274-.0879-.43946.2149-.11718.4004-.21484.5567-.29297.1758-.07812.3222-.13671.4394-.17578.1367-.05859.2637-.09765.3809-.11718.4492-.09766.8691-.14649 1.2598-.14649.4101-.01953.6347.04883.6738.20508.0195.09766.039.27344.0586.52734.039.25391.0586.56641.0586.9375 0 .3711-.0293.79102-.0879 1.25975-.0586.4492-.166.9278-.3223 1.4356-.1367.4492-.3223 1.0742-.5566 1.875-.2149.6836-.4981 1.6015-.8496 2.7539-.3516 1.1328-.8106 2.5879-1.377 4.3652.5859-.1953 1.2305-.3809 1.9336-.5566.7031-.1758 1.416-.3223 2.1387-.4395.7422-.1172 1.4746-.2051 2.1972-.2637.7422-.0586 1.4258-.0683 2.0508-.0293.1172 0 .1953.0586.2344.1758.0586.0977.0586.2051 0 .3223-.0391.1172-.1465.2344-.3223.3516-.1562.0976-.3906.1562-.7031.1757-.3906.0391-.8203.0879-1.2891.1465-.4687.0391-.957.1074-1.4648.2051-.4883.0781-.9766.1855-1.4648.3223-.4883.1172-.9473.2636-1.377.4394-.332.1172-.6641.2344-.9961.3516-.2734.0976-.5664.2148-.8789.3515-.293.1172-.5371.2247-.7324.3223l-.6738 2.1387c1.1328.8008 2.0019 1.6211 2.6074 2.4609.625.8399 1.0742 1.6113 1.3476 2.3145.3321.8203.5176 1.6211.5567 2.4023 0 .8594-.127 1.7188-.3809 2.5781-.2539.8789-.5957 1.709-1.0254 2.4903-.4101.8008-.8984 1.5429-1.4648 2.2265-.5469.6836-1.1328 1.2696-1.7578 1.7578-.6055.4883-1.2305.8594-1.875 1.1133-.625.2539-1.2207.3516-1.7871.293-.4102-.0391-.752-.1758-1.0254-.4102-.2735-.2148-.4786-.498-.6153-.8496-.1367-.332-.2148-.7129-.2343-1.1425-.0196-.4102.0195-.8204.1171-1.2305.0782-.4102.2442-1.1719.4981-2.2852.2148-.9375.5469-2.3047.9961-4.1015.4492-1.7774 1.0547-4.1504 1.8164-7.1192zm1.7285 1.377c-.2734.9765-.5176 1.875-.7324 2.6953-.1953.8203-.3613 1.543-.4981 2.168-.1757.7226-.3125 1.3769-.4101 1.9628-.1758.7422-.3613 1.4747-.5567 2.1973-.1757.7227-.3125 1.3672-.4101 1.9336-.1172.5859-.166 1.0547-.1465 1.4063.0195.3515.1465.5273.3809.5273.5664.0391 1.1523-.1855 1.7578-.6738.625-.4688 1.1914-1.0742 1.6992-1.8164.5078-.7227.9277-1.5137 1.2598-2.3731.332-.8398.498-1.6211.498-2.3437 0-.8008-.127-1.5918-.3809-2.3731-.1757-.4101-.3808-.8105-.6152-1.2011-.2148-.3321-.4785-.6836-.791-1.0547-.293-.3907-.6445-.7422-1.0547-1.0547zm20.7129-4.4239c-.5859.8594-1.25 1.6993-1.9922 2.5196-.7422.8008-1.5332 1.5234-2.373 2.168-.8204.625-1.67 1.1328-2.5489 1.5234-.8593.3906-1.6992.5859-2.5195.5859-.4297 0-.8984-.1074-1.4062-.3222-.4883-.1954-.9376-.5079-1.3477-.9375-.4102-.4297-.7422-.9864-.9961-1.67-.2344-.6836-.3027-1.5136-.2051-2.4902.0781-.8008.3223-1.6406.7324-2.5195.4297-.8985.9473-1.7188 1.5528-2.461.625-.7422 1.3183-1.3574 2.0801-1.8457.7812-.4882 1.5625-.7324 2.3437-.7324.7422 0 1.2793.1856 1.6113.5566.3321.3711.4786.8301.4395 1.377-.0586.6055-.2344 1.1621-.5274 1.6699-.2734.5078-.6054.9668-.9961 1.377-.3906.4101-.8105.7812-1.2597 1.1133-.4297.332-.8399.6347-1.2305.9082-.4297.2929-.8398.5761-1.2305.8496-.3906.2539-.7324.4883-1.0253.7031.0195.4883.1074.8984.2636 1.2305.1563.332.3516.6054.586.8203.2343.1953.498.3418.791.4394.3125.0782.625.1172.9375.1172.664 0 1.3574-.2051 2.0801-.6152.7226-.4297 1.4257-.9375 2.1093-1.5235.7032-.6054 1.3477-1.2304 1.9336-1.875.6055-.6445 1.1035-1.2011 1.4942-1.6699.1367-.1562.2734-.2441.4101-.2636.1563-.0391.2735-.0196.3516.0585.0976.0586.1465.1758.1465.3516 0 .1563-.0684.3418-.2051.5566zm-7.5-4.5117c-.2344 0-.5176.1172-.8496.3516-.3125.2344-.625.5762-.9375 1.0254-.3125.4297-.6055.9668-.8789 1.6113-.2735.625-.4785 1.3477-.6153 2.168.2344-.1758.4883-.3516.7618-.5274.2734-.1953.5468-.4004.8203-.6152.8398-.6445 1.4258-1.2109 1.7578-1.6992s.5176-.9082.5566-1.2598c.0391-.3711 0-.6347-.1172-.791-.1171-.1758-.2832-.2637-.498-.2637z"/><path d="m33.3594 17.2079c-1.2465 0-2.3743.4753-3.2053 1.2475v-2.3762c0-1.1287-.9498-2.0792-2.0776-2.0792h-24.39628c-1.12781 0-2.07754.9505-2.07754 2.0792v7.1287c0 4.9307 2.8492 9.3862 6.82621 11.5842h-6.82621c-.949738 0-1.60268.6534-1.60268 1.6039s.652942 1.604 1.60268 1.604h28.61072c.9497 0 1.6027-.6535 1.6027-1.604s-.653-1.6039-1.6027-1.6039h-6.7075c2.8492-1.604 5.1048-4.2772 6.0546-7.4852.7716 1.1287 2.1962 1.901 3.6802 1.901 1.2465 0 2.5524-.4752 3.5021-1.4257.7717-.9505 1.2466-2.0792 1.2466-3.3268v-2.5544c.178-2.6139-1.8995-4.6931-4.63-4.6931zm-6.3513 6.3565c0 5.2277-4.2738 9.5643-9.6755 9.5643h-2.5524c-5.57965 0-10.03153-4.4554-10.03153-10.0396v-5.8812h22.25943zm7.6572 1.7821c-.3562.2971-.831.4753-1.3059.4753-.7717 0-1.6027-.7723-1.6027-1.604v-2.198c0-.7723.7717-1.604 1.6027-1.604.7717 0 1.6027.7723 1.6027 1.604v2.3762c0 .4753-.1781.7723-.2968.9505z"/><path d="m8 11c1.18518 0 2-.6567 2-1.61194v-4.77612c0-.95522-.81482-1.61194-2-1.61194-1.18519 0-2 .65672-2 1.61194v4.77612c0 .95524.81481 1.61194 2 1.61194z"/><path d="m16 11c1.1852 0 2-.6567 2-1.61194v-4.77612c0-.95522-.8148-1.61194-2-1.61194s-2 .65672-2 1.61194v4.77612c0 .95524.8148 1.61194 2 1.61194z"/><path d="m24 11c1.1852 0 2-.6567 2-1.61194v-4.77612c0-.95522-.8148-1.61194-2-1.61194s-2 .65672-2 1.61194v4.77612c0 .95524.8148 1.61194 2 1.61194z"/></g></svg>